<svg width="348" height="110" viewBox="0 0 348 110" xmlns="http://www.w3.org/2000/svg">
  <defs>
    <style>
      .cls-1 {
        fill: #141416;
        font-family: PlayfairDisplay-Bold, 'Playfair Display';
        font-size: 69px;
        font-weight: 700;
      }

      .cls-2 {
        fill: #d5ccff;
      }
    </style>
  </defs>
  <g>
    <text class="cls-1" transform="translate(141.1 76.68)"><tspan x="0" y="0">Lumio</tspan></text>
    <path class="cls-2" d="M108.8,18.62c-1.19-10.67-6.72-16.11-17.41-17.33C76.96-.36,29.82-.63,16.09,1.65,7.72,3.04,2.66,8.95,1.48,17.25c-2.07,14.56-1.81,58.74-.14,73.75.86,7.71,3.68,13.26,11.29,15.89,8.31,2.88,67.51,2.69,78.77,1.44,7.74-.86,13.31-3.67,15.96-11.24,2.89-8.27,2.7-67.25,1.45-78.47ZM94.95,56.86c-20.62-.72-38.23,17.27-37.85,37.71h-4.53c.72-20.54-17.34-38.09-37.85-37.71v-4.51c20.98.69,37.83-17.32,37.85-37.71h4.53c-.72,20.54,17.34,38.09,37.85,37.71v4.51Z"/>
  </g>
</svg>
